<?xml version="1.0" encoding="UTF-8" standalone="no"?>
<svg
   xmlns:dc="http://purl.org/dc/elements/1.1/"
   xmlns:cc="http://creativecommons.org/ns#"
   xmlns:rdf="http://www.w3.org/1999/02/22-rdf-syntax-ns#"
   xmlns:svg="http://www.w3.org/2000/svg"
   xmlns="http://www.w3.org/2000/svg"
   xmlns:sodipodi="http://sodipodi.sourceforge.net/DTD/sodipodi-0.dtd"
   xmlns:inkscape="http://www.inkscape.org/namespaces/inkscape"
   width="157.32658"
   height="207.73639"
   version="1.0"
   id="svg2"
   inkscape:version="0.47 r22583"
   sodipodi:docname="earth.pdf">
  <defs
     id="defs28">
    <marker
       inkscape:stockid="Arrow1Mend"
       orient="auto"
       refY="0"
       refX="0"
       id="Arrow1Mend"
       style="overflow:visible">
      <path
         id="path3622"
         d="M 0,0 5,-5 -12.5,0 5,5 0,0 z"
         style="fill-rule:evenodd;stroke:#000000;stroke-width:1pt;marker-start:none"
         transform="matrix(-0.4,0,0,-0.4,-4,0)" />
    </marker>
    <marker
       inkscape:stockid="Arrow1Lend"
       orient="auto"
       refY="0"
       refX="0"
       id="Arrow1Lend"
       style="overflow:visible">
      <path
         id="path3616"
         d="M 0,0 5,-5 -12.5,0 5,5 0,0 z"
         style="fill-rule:evenodd;stroke:#000000;stroke-width:1pt;marker-start:none"
         transform="matrix(-0.8,0,0,-0.8,-10,0)" />
    </marker>
    <inkscape:perspective
       sodipodi:type="inkscape:persp3d"
       inkscape:vp_x="0 : 189.5 : 1"
       inkscape:vp_y="0 : 1000 : 0"
       inkscape:vp_z="720 : 189.5 : 1"
       inkscape:persp3d-origin="360 : 126.33333 : 1"
       id="perspective30" />
  </defs>
  <sodipodi:namedview
     pagecolor="#ffffff"
     bordercolor="#666666"
     borderopacity="1"
     objecttolerance="10"
     gridtolerance="10"
     guidetolerance="10"
     inkscape:pageopacity="0"
     inkscape:pageshadow="2"
     inkscape:window-width="1680"
     inkscape:window-height="978"
     id="namedview26"
     showgrid="false"
     inkscape:zoom="1.7612369"
     inkscape:cx="156.73315"
     inkscape:cy="95.580068"
     inkscape:window-x="0"
     inkscape:window-y="25"
     inkscape:window-maximized="1"
     inkscape:current-layer="svg2" />
  <metadata
     id="metadata4">
    <rdf:RDF>
      <cc:Work
         rdf:about="">
        <dc:format>image/svg+xml</dc:format>
        <dc:type
           rdf:resource="http://purl.org/dc/dcmitype/StillImage" />
        <dc:title></dc:title>
        <dc:date>20060906-2134</dc:date>
        <dc:creator>
          <cc:Agent>
            <dc:title>JCRogers/Buddy13</dc:title>
          </cc:Agent>
        </dc:creator>
        <dc:rights>
          <cc:Agent>
            <dc:title>Fox Television, Rough Draft Studios, Matt Groening</dc:title>
          </cc:Agent>
        </dc:rights>
        <dc:publisher>
          <cc:Agent>
            <dc:title>The Infosphere (http://futurama.overt-ops.com)</dc:title>
          </cc:Agent>
        </dc:publisher>
        <dc:language>en-us</dc:language>
        <dc:subject>
          <rdf:Bag>
            <rdf:li>Futurama</rdf:li>
            <rdf:li>Earth Flag</rdf:li>
            <rdf:li>Earthican</rdf:li>
          </rdf:Bag>
        </dc:subject>
        <dc:description>Recreation of the Earth flag as seen in the animated series, Futurama.</dc:description>
      </cc:Work>
    </rdf:RDF>
  </metadata>
  <g
     id="Earth"
     transform="translate(-56.171437,3.4226126)">
    <ellipse
       ry="73.75"
       rx="74.901619"
       cy="102.90385"
       cx="134.82291"
       style="fill:#00ccff"
       id="ellipse22"
       d="m 209.72453,102.90385 c 0,40.731 -33.5346,73.75 -74.90162,73.75 -41.367025,0 -74.901622,-33.019 -74.901622,-73.75 0,-40.731004 33.534597,-73.750003 74.901622,-73.750003 41.36702,0 74.90162,33.018999 74.90162,73.750003 z"
       sodipodi:cx="134.82291"
       sodipodi:cy="102.90385"
       sodipodi:rx="74.901619"
       sodipodi:ry="73.75" />
    <path
       style="fill:#339933"
       d="m 134.82614,29.155231 c -16.73537,-0.06324 -33.41965,5.66608 -46.5625,16.03125 2.690372,1.785837 4.993494,-1.111382 6.87072,-1.716376 3.252296,3.792534 -2.507526,6.176723 -4.010593,8.71948 2.369841,2.480722 6.448116,2.963595 8.277557,6.136006 2.915056,5.129489 0.650306,11.19279 -0.287961,16.569611 -1.441705,6.769146 -2.697241,13.9451 -0.281917,20.658319 0.716369,4.528599 4.394654,6.900529 7.883334,9.063549 1.54981,3.36688 4.68353,5.5068 7.77269,7.38294 7.84588,4.30974 16.05612,8.67407 21.84439,15.6956 3.29524,3.04107 -1.29826,5.9976 -0.93499,9.48796 -0.6879,3.98127 1.74697,7.46354 4.7379,9.79115 2.85414,2.34559 6.35029,4.77253 6.70488,8.8082 0.40142,2.87733 -0.43058,6.08555 -2.62265,8.07364 -2.57501,-1.34007 -5.76136,3.39936 -7.79669,5.28537 -3.99323,3.61825 2.81036,5.43812 5.42997,3.81894 1.92368,-3.09416 5.92267,-4.07519 8.78382,-6.14339 2.53163,-1.8565 4.09319,-4.51918 7.67987,-3.0481 4.0971,-0.53455 6.22567,-4.62078 9.73672,-6.35819 2.87632,-2.14481 6.90133,-3.0345 8.96295,-6.09971 1.89299,-3.49013 6.85762,-3.82856 8.67958,-7.49378 2.41336,-3.96353 2.03082,-8.95263 4.173,-12.97734 -1.52686,-2.99309 -5.4818,-3.66545 -8.52114,-4.28636 -5.5001,-0.0662 -10.99604,-1.45187 -15.67426,-4.40651 -6.68066,-3.15611 -14.30497,-1.86112 -21.44313,-1.97503 -4.15792,-0.0682 -9.43138,0.59634 -12.07489,-3.43077 -2.42664,-2.48073 -2.57863,-5.98362 -2.59105,-9.10228 -3.04344,-3.80278 -5.12401,3.03083 -7.83403,2.03759 -1.53141,-2.87798 -1.33925,-7.14299 0.60021,-9.800984 4.53651,-2.707628 10.19198,-0.251581 14.06953,2.576064 2.02904,2.21621 7.8956,2.92821 4.36366,-1.40484 -2.42534,-3.667811 -1.22111,-8.610299 1.87416,-11.486006 4.27829,-3.753274 7.4844,-8.565771 9.7109,-13.775597 1.26498,-2.8951 5.47409,-4.122917 2.47534,-7.576959 -1.51283,-3.509078 -4.75477,-6.373252 -8.79643,-5.917725 -4.05706,-0.127253 -8.44354,0.783851 -11.26497,3.922701 -2.43538,2.231112 -2.68499,-0.574957 -0.67177,-1.959578 1.8125,-1.805056 -1.71547,-2.531472 1.35665,-3.753741 1.06245,-4.099067 -4.63555,-6.097226 -7.72462,-7.287837 -3.11011,-1.520483 -8.7136,0.662401 -9.6401,-3.82042 -1.5018,-2.757858 -4.94329,-4.308147 -5.91039,-7.236847 5.67323,-3.801226 12.46544,-5.423606 19.23271,-5.516387 7.40321,-0.248964 15.10774,-0.292361 22.12403,2.37155 2.21853,2.3611 4.58863,4.771473 8.00628,5.787122 3.39071,1.252263 5.06618,4.767737 8.01944,6.424226 3.09386,0.36564 8.13675,-4.712557 9.12552,0.553034 0.35479,4.421225 6.24903,6.873963 4.2363,11.803884 -0.79735,3.394865 2.13422,5.743152 4.15061,7.950357 4.42812,5.693736 6.85864,12.576327 8.69906,19.466437 2.59702,7.88442 6.43541,15.507516 12.32631,21.446136 2.03593,2.48537 1.01385,-4.80485 1.56924,-6.20139 1.13142,-21.976682 -8.43571,-44.117384 -25.10305,-58.474942 -13.60138,-11.982745 -31.6117,-18.683359 -49.7302,-18.610027 z M 63.826141,82.217728 c -2.706718,2.203041 -2.274559,7.414787 -3.237761,10.900277 -1.410842,10.225335 -0.577732,20.747315 2.39401,30.630975 1.491003,-3.79161 5.898488,-5.67936 6.06912,-10.13597 1.496359,-7.54967 1.335545,-15.600879 -1.555228,-22.813747 -1.479953,-2.514098 -0.656522,-7.447131 -3.670141,-8.581535 z m 22.9375,60.781252 c -3.564721,0.5419 -6.863757,2.79333 -9.083646,5.59111 -0.507004,3.63946 4.292828,5.78563 6.315664,8.44966 7.391043,6.73713 16.139591,12.00281 25.580481,15.30298 0.76235,-2.65136 -6.39102,-4.36328 -3.8125,-7 1.75245,-3.44802 -4.64579,-5.94323 -5.837083,-9.20808 -2.614797,-3.59217 -3.809335,-8.24252 -7.640571,-10.88566 -1.607194,-1.12548 -3.511757,-2.2087 -5.522345,-2.25001 z"
       id="path24" />
  </g>
  <path
     sodipodi:type="spiral"
     style="fill:none;stroke:#000000;stroke-width:1px;stroke-linecap:butt;stroke-linejoin:miter;stroke-opacity:1;marker-end:url(#Arrow1Lend)"
     id="path2836"
     sodipodi:cx="323.92007"
     sodipodi:cy="266.2951"
     sodipodi:expansion="0"
     sodipodi:revolution="1"
     sodipodi:radius="123.73562"
     sodipodi:argument="-5.2821589"
     sodipodi:t0="0"
     d="m 390.6678,370.48361 c -56.75485,36.35965 -134.57657,19.31408 -170.93623,-37.44077 -36.35965,-56.75486 -19.31408,-134.57658 37.44077,-170.93624 56.75486,-36.35965 134.57658,-19.31408 170.93624,37.44077 36.35965,56.75486 19.31408,134.57658 -37.44078,170.93624"
     transform="matrix(-0.51591016,-0.36711579,0.36711579,-0.51591016,148.01581,362.62698)" />
  <text
     xml:space="preserve"
     style="font-size:12px;font-style:normal;font-variant:normal;font-weight:normal;font-stretch:normal;text-align:start;line-height:125%;writing-mode:lr-tb;text-anchor:start;fill:#000000;fill-opacity:1;stroke:none;font-family:Sans;-inkscape-font-specification:Sans"
     x="76.811798"
     y="9.1171875"
     id="text4618"
     sodipodi:linespacing="125%"><tspan
       sodipodi:role="line"
       id="tspan4620"
       x="76.811798"
       y="9.1171875"
       style="text-align:center;text-anchor:middle">earth circumference:</tspan><tspan
       sodipodi:role="line"
       x="76.811798"
       y="24.117188"
       id="tspan4622"
       style="text-align:center;text-anchor:middle">40074 km</tspan></text>
  <path
     style="fill:none;stroke:#000000;stroke-width:1px;stroke-linecap:butt;stroke-linejoin:miter;stroke-opacity:1;marker-end:url(#Arrow1Mend)"
     d="m 41.068073,197.31438 7.2267,-22.08157"
     id="path4624" />
  <text
     xml:space="preserve"
     style="font-size:12px;font-style:normal;font-variant:normal;font-weight:normal;font-stretch:normal;text-align:start;line-height:125%;writing-mode:lr-tb;text-anchor:start;fill:#000000;fill-opacity:1;stroke:none;font-family:Sans;-inkscape-font-specification:Sans"
     x="17.649199"
     y="206.34186"
     id="text4998"
     sodipodi:linespacing="125%"><tspan
       sodipodi:role="line"
       id="tspan5000"
       x="17.649199"
       y="206.34186">3,2 mm</tspan></text>
</svg>
